<?xml version="1.0" standalone="no"?>
<!DOCTYPE svg PUBLIC "-//W3C//DTD SVG 20010904//EN"
 "http://www.w3.org/TR/2001/REC-SVG-20010904/DTD/svg10.dtd">
<svg version="1.0" xmlns="http://www.w3.org/2000/svg"
 width="2070.000000pt" height="525.000000pt" viewBox="0 0 2070.000000 525.000000"
 preserveAspectRatio="xMidYMid meet">

<g transform="translate(0.000000,525.000000) scale(0.100000,-0.100000)"
fill="#000000" stroke="none">
<path d="M1435 4636 c-166 -23 -654 -113 -920 -172 -292 -64 -415 -96 -415
-107 0 -7 11 -212 25 -457 64 -1135 32 -2260 -94 -3285 -16 -126 -28 -231 -27
-231 0 -1 111 11 246 26 135 16 321 35 414 44 93 9 170 17 171 18 3 3 21 675
31 1131 l7 297 86 0 c47 0 136 3 197 6 l111 7 19 -49 c10 -27 47 -123 82 -214
35 -91 81 -212 102 -270 21 -58 83 -222 138 -365 55 -143 119 -313 143 -378
l44 -119 75 6 c41 3 190 8 330 11 346 7 420 13 420 31 0 8 -39 106 -86 217
-176 413 -554 1346 -554 1368 0 4 42 37 94 74 320 226 483 517 570 1015 48
274 40 580 -21 774 -81 260 -260 454 -513 555 -169 67 -457 96 -675 67z m107
-858 c170 -79 246 -261 236 -568 -5 -129 -8 -154 -36 -233 -56 -161 -145 -258
-271 -297 -52 -17 -112 -22 -329 -30 -146 -6 -266 -9 -268 -8 -1 2 -7 188 -13
413 -6 226 -14 476 -17 556 l-7 146 99 11 c55 7 153 17 219 23 66 6 122 13
125 16 3 3 50 3 105 1 82 -3 110 -9 157 -30z"/>
<path d="M2900 2305 l0 -1775 920 0 920 0 0 330 0 330 -600 0 -600 0 0 425 0
425 505 0 505 0 0 315 0 315 -505 0 -505 0 0 375 0 375 600 0 600 0 0 330 0
330 -920 0 -920 0 0 -1775z"/>
<path d="M5000 2305 l0 -1775 920 0 920 0 0 330 0 330 -600 0 -600 0 0 425 0
425 505 0 505 0 0 315 0 315 -505 0 -505 0 0 375 0 375 600 0 600 0 0 330 0
330 -920 0 -920 0 0 -1775z"/>
<path d="M7090 2305 l0 -1775 880 0 880 0 0 330 0 330 -560 0 -560 0 0 1445 0
1445 -320 0 -320 0 0 -1775z"/>
<path d="M9857 3932 c-16 -17 -17 -123 -17 -1680 0 -1496 2 -1662 16 -1676 24
-24 355 -24 375 1 12 13 15 133 17 665 l3 649 136 -3 136 -3 219 -650 c121
-357 224 -656 230 -662 12 -15 394 -18 417 -4 10 6 12 20 8 45 -3 20 -116 347
-251 726 -135 380 -246 692 -246 695 0 3 22 28 50 56 119 119 214 308 254 506
35 171 38 489 5 667 -42 234 -145 435 -278 543 -65 53 -121 82 -216 114 -67
22 -85 23 -455 27 -369 3 -386 3 -403 -16z m799 -557 c106 -66 154 -185 161
-401 9 -233 -22 -351 -116 -445 -78 -78 -119 -91 -303 -97 l-148 -4 0 492 0
491 178 -3 179 -3 49 -30z"/>
<path d="M11720 3930 c-20 -20 -20 -29 -18 -1685 3 -1349 5 -1666 16 -1677 18
-18 1197 -25 1218 -7 19 16 21 508 2 527 -9 9 -116 12 -420 12 l-408 0 0 455
0 455 374 0 c335 0 375 2 387 17 11 13 14 68 14 258 0 190 -3 245 -14 258 -12
15 -52 17 -387 17 l-374 0 0 420 0 420 393 0 c292 0 396 3 405 12 17 17 17
509 0 526 -9 9 -154 12 -590 12 -566 0 -578 0 -598 -20z"/>
<path d="M13161 3941 c-10 -6 -12 -21 -8 -50 10 -76 809 -3286 823 -3308 14
-22 19 -23 195 -23 l180 0 14 33 c12 30 797 3195 814 3283 14 74 14 74 -199
74 -186 0 -190 0 -204 -22 -8 -13 -149 -591 -312 -1285 -164 -695 -300 -1260
-303 -1257 -3 3 -137 575 -298 1271 -161 696 -298 1272 -304 1279 -9 11 -52
14 -198 14 -102 0 -192 -4 -200 -9z"/>
<path d="M15357 3932 c-16 -17 -17 -148 -17 -1680 0 -1496 2 -1662 16 -1676
22 -22 340 -24 370 -2 19 14 19 43 19 1674 0 1618 0 1660 -19 1681 -18 20 -29
21 -186 21 -149 0 -169 -2 -183 -18z"/>
<path d="M16180 3930 c-20 -20 -20 -29 -18 -1685 3 -1349 5 -1666 16 -1677 18
-18 1197 -25 1218 -7 19 16 21 508 2 527 -9 9 -116 12 -420 12 l-408 0 0 455
0 455 374 0 c335 0 375 2 387 17 11 13 14 68 14 258 0 190 -3 245 -14 258 -12
15 -52 17 -387 17 l-374 0 0 420 0 420 393 0 c292 0 396 3 405 12 17 17 17
509 0 526 -9 9 -154 12 -590 12 -566 0 -578 0 -598 -20z"/>
<path d="M17617 3943 c-4 -3 -7 -23 -7 -44 0 -59 639 -3291 656 -3317 15 -22
17 -22 202 -20 l187 3 11 25 c7 14 116 560 243 1215 267 1374 242 1247 246
1243 2 -2 101 -544 219 -1203 119 -660 220 -1217 226 -1237 7 -26 18 -40 33
-43 12 -3 101 -4 197 -3 l175 3 11 25 c7 14 164 767 350 1673 257 1255 336
1652 327 1665 -9 15 -34 17 -189 19 -98 2 -185 -1 -192 -5 -8 -5 -105 -484
-250 -1225 -130 -669 -240 -1213 -243 -1209 -3 4 -101 525 -218 1157 -237
1282 -234 1264 -252 1276 -8 5 -96 9 -196 9 -152 0 -184 -3 -197 -16 -9 -8
-16 -18 -16 -21 0 -7 -426 -2289 -442 -2363 -6 -30 -13 -50 -15 -44 -2 6 -109
552 -238 1213 -128 661 -239 1209 -245 1216 -10 12 -48 15 -195 15 -100 0
-185 -3 -188 -7z"/>
</g>
</svg>
