<?xml version="1.0" encoding="UTF-8"?>
<svg width="24px" height="24px" viewBox="0 0 24 24" version="1.1" xmlns="http://www.w3.org/2000/svg" xmlns:xlink="http://www.w3.org/1999/xlink">
    <!-- Generator: sketchtool 50.2 (55047) - http://www.bohemiancoding.com/sketch -->
    <title>4ACB7ADE-899E-414F-B092-8530AE4E57FC</title>
    <desc>Created with sketchtool.</desc>
    <defs></defs>
    <g id="Icons-&amp;-Assets" stroke="none" stroke-width="1" fill="none" fill-rule="evenodd">
        <g id="Icon-&amp;-Asset-/-iOS,-And,-Web" transform="translate(-243.000000, -764.000000)"></g>
        <g id="Icon-/-IcVisibilityOffDark50" fill="#A0A0A0">
            <g id="Visibility-Off" transform="translate(1.000000, 3.000000)">
                <path d="M11.0002,13.7499 C8.3812,13.7499 6.2502,11.6189 6.2502,8.9999 C6.2502,8.2379 6.4472,7.5279 6.7682,6.8889 L7.9132,8.0349 C7.8162,8.3419 7.7502,8.6619 7.7502,8.9999 C7.7502,10.7919 9.2082,12.2499 11.0002,12.2499 C11.3392,12.2499 11.6582,12.1839 11.9662,12.0869 L13.1112,13.2319 C12.4722,13.5529 11.7622,13.7499 11.0002,13.7499 Z M16.9112,14.9119 L19.4732,17.4729 C19.7662,17.7659 19.7662,18.2409 19.4732,18.5339 C19.3262,18.6799 19.1352,18.7529 18.9422,18.7529 C18.7502,18.7529 18.5592,18.6799 18.4122,18.5339 L15.4882,15.6099 C14.1042,16.1799 12.5912,16.4999 11.0012,16.4999 C6.1552,16.4999 1.9962,13.5799 0.1692,9.4049 C0.0572,9.1489 0.0572,8.8509 0.1692,8.5949 C0.9772,6.7499 2.2412,5.1509 3.8182,3.9389 L1.4412,1.5629 C1.1482,1.2699 1.1482,0.7949 1.4412,0.5019 C1.7342,0.2089 2.2092,0.2089 2.5022,0.5019 L5.0892,3.0889 L5.0902,3.0889 L7.6442,5.6429 C7.6442,5.6429 7.6432,5.6429 7.6432,5.6429 L8.7022,6.7029 C8.7032,6.7029 8.7032,6.7029 8.7042,6.7029 L13.2982,11.2959 C13.2982,11.2969 13.2972,11.2969 13.2972,11.2969 L14.3562,12.3569 C14.3572,12.3569 14.3572,12.3569 14.3572,12.3559 L16.9122,14.9109 C16.9112,14.9109 16.9112,14.9109 16.9112,14.9119 Z M21.8322,8.5951 C21.9442,8.8501 21.9442,9.1491 21.8322,9.4051 C21.0242,11.2511 19.7542,12.8431 18.1772,14.0531 L15.2332,11.1101 C15.5532,10.4711 15.7502,9.7621 15.7502,9.0001 C15.7502,6.3811 13.6192,4.2501 11.0002,4.2501 C10.2382,4.2501 9.5282,4.4471 8.8902,4.7671 L6.5132,2.3911 C7.8972,1.8201 9.4102,1.5001 11.0012,1.5001 C15.8452,1.5001 20.0052,4.4201 21.8322,8.5951 Z M14.2502,8.9999 C14.2502,9.3379 14.1842,9.6579 14.0872,9.9649 L10.0352,5.9129 C10.3422,5.8159 10.6622,5.7499 11.0002,5.7499 C12.7922,5.7499 14.2502,7.2079 14.2502,8.9999 Z" id="Combined-Shape"></path>
            </g>
        </g>
    </g>
</svg>