<?xml version="1.0" encoding="UTF-8"?>
<svg width="24px" height="24px" viewBox="0 0 24 24" version="1.1" xmlns="http://www.w3.org/2000/svg" xmlns:xlink="http://www.w3.org/1999/xlink">
    <!-- Generator: sketchtool 50.2 (55047) - http://www.bohemiancoding.com/sketch -->
    <title>5D0FF16F-4F27-4522-8559-7F25837C8B19</title>
    <desc>Created with sketchtool.</desc>
    <defs></defs>
    <g id="Icons-&amp;-Assets" stroke="none" stroke-width="1" fill="none" fill-rule="evenodd">
        <g id="Icon-&amp;-Asset-/-iOS,-And,-Web" transform="translate(-214.000000, -764.000000)"></g>
        <g id="Icon-/-IcVisibilityDark50" fill="#A0A0A0">
            <g id="Visibility" transform="translate(1.000000, 4.000000)">
                <path d="M11.0002,4.7499 C9.2082,4.7499 7.7502,6.2079 7.7502,7.9999 C7.7502,9.7919 9.2082,11.2499 11.0002,11.2499 C12.7922,11.2499 14.2502,9.7919 14.2502,7.9999 C14.2502,6.2079 12.7922,4.7499 11.0002,4.7499" id="Fill-966"></path>
                <path d="M11.0002,12.7499 C8.3812,12.7499 6.2502,10.6189 6.2502,7.9999 C6.2502,5.3809 8.3812,3.2499 11.0002,3.2499 C13.6192,3.2499 15.7502,5.3809 15.7502,7.9999 C15.7502,10.6189 13.6192,12.7499 11.0002,12.7499 M21.8322,7.5949 C20.0052,3.4199 15.8452,0.4999 11.0012,0.4999 C6.1552,0.4999 1.9962,3.4199 0.1692,7.5949 C0.0572,7.8509 0.0572,8.1489 0.1692,8.4049 C1.9962,12.5799 6.1552,15.4999 11.0012,15.4999 C15.8452,15.4999 20.0052,12.5799 21.8322,8.4049 C21.9442,8.1489 21.9442,7.8509 21.8322,7.5949" id="Fill-967"></path>
            </g>
        </g>
    </g>
</svg>